<svg width="36" height="36" viewBox="0 0 36 36" fill="none" xmlns="http://www.w3.org/2000/svg">
<path d="M12 3.5C12 3.23478 11.8946 2.98043 11.7071 2.79289C11.5196 2.60536 11.2652 2.5 11 2.5C10.7348 2.5 10.4804 2.60536 10.2929 2.79289C10.1054 2.98043 10 3.23478 10 3.5V4.5H8C6.93913 4.5 5.92172 4.92143 5.17157 5.67157C4.42143 6.42172 4 7.43913 4 8.5L4 10.5H36V8.5C36 7.43913 35.5786 6.42172 34.8284 5.67157C34.0783 4.92143 33.0609 4.5 32 4.5H30V3.5C30 3.23478 29.8946 2.98043 29.7071 2.79289C29.5196 2.60536 29.2652 2.5 29 2.5C28.7348 2.5 28.4804 2.60536 28.2929 2.79289C28.1054 2.98043 28 3.23478 28 3.5V4.5H12V3.5ZM36 30.5V12.5H4V30.5C4 31.5609 4.42143 32.5783 5.17157 33.3284C5.92172 34.0786 6.93913 34.5 8 34.5H32C33.0609 34.5 34.0783 34.0786 34.8284 33.3284C35.5786 32.5783 36 31.5609 36 30.5ZM29 16.5H31C31.2652 16.5 31.5196 16.6054 31.7071 16.7929C31.8946 16.9804 32 17.2348 32 17.5V19.5C32 19.7652 31.8946 20.0196 31.7071 20.2071C31.5196 20.3946 31.2652 20.5 31 20.5H29C28.7348 20.5 28.4804 20.3946 28.2929 20.2071C28.1054 20.0196 28 19.7652 28 19.5V17.5C28 17.2348 28.1054 16.9804 28.2929 16.7929C28.4804 16.6054 28.7348 16.5 29 16.5Z" fill="#3A643C"></path>
</svg>
