<svg viewBox="0 0 609 515" xmlns="http://www.w3.org/2000/svg">
  <path fill-rule="evenodd" clip-rule="evenodd" d="M292.772 8.97264e-05C328.825 -0.0499628 362.191 20.8487 390.841 42.7309C417.184 62.8514 421.02 70.8629 443.975 83.2991C459.593 91.7609 472.142 89.5545 486.03 100.629C519.481 127.304 507.126 171.983 503.719 208.748C500.298 245.67 490.869 284.378 466.421 312.262C442.381 339.68 402.702 345.236 369.964 361.302C341.776 375.134 315.842 392.299 285.663 400.966C254.271 409.981 221.966 416.818 189.515 413.122C155.821 409.284 122.105 399.297 94.7749 379.224C67.4835 359.179 50.466 328.762 34.2137 299.059C18.1773 269.75 -0.345501 244.73 0.00489627 206.019C0.208446 183.532 2.57757 170.029 12.3423 149.771C30.0928 112.946 64.2964 107.772 93.2078 83.2991C121.326 59.4978 160.827 57.194 194.825 43.003C228.095 29.1163 256.72 0.0501413 292.772 8.97264e-05Z" fill="#DBDCC4"></path>
</svg>
