<svg width="42" height="42" viewBox="0 0 42 42" fill="none" xmlns="http://www.w3.org/2000/svg">
<path d="M39.3111 32.7881C34.8569 30.6011 30.2452 31.9308 28.4513 32.6132L27.0075 29.945C26.0536 28.3703 26.0973 26.4457 27.1387 24.2325C27.6638 23.1127 28.4951 22.0191 29.6064 20.9956C30.3065 20.3395 31.0591 19.5347 31.8379 18.5899C34.3756 15.528 34.5681 11.3639 32.3192 8.22325C28.7838 3.30678 21.6432 0.201191 21.3456 0.0700004C21.2319 0.0262168 21.1181 0 21.0044 0C20.9956 0 20.9956 0 20.9956 0C20.8819 0 20.7681 0.0262168 20.6544 0.0700004C20.348 0.201191 13.2162 3.30678 9.68079 8.22325C7.43188 11.3639 7.62437 15.528 10.1534 18.5899C10.9322 19.5347 11.6848 20.3395 12.3936 20.9956C13.5049 22.0279 14.3362 23.1127 14.8613 24.2325C15.9027 26.4457 15.9464 28.3703 14.9663 29.98L13.5487 32.6132C11.7548 31.9308 7.14308 30.6011 2.68889 32.7881C0.641232 33.7854 -0.400117 35.8588 0.142429 37.8359C0.614954 39.568 2.14635 40.8714 4.75413 41.7288C4.85037 41.755 5.90048 42 7.65935 42C9.84706 42 13.1111 41.6238 16.9965 39.9966L20.9956 38.2208L25.021 40.0054C32.0129 42.9361 37.0359 41.7813 37.3159 41.7113C39.8536 40.8714 41.385 39.568 41.8576 37.8359C42.4001 35.8588 41.3588 33.7854 39.3111 32.7881ZM23.3409 17.2252L24.5835 15.9567C24.6097 15.9217 24.636 15.8954 24.6622 15.8604C26.1236 13.8396 26.5961 11.9325 26.0448 10.1829C25.406 8.11828 23.4283 6.78859 20.9956 6.78859C18.5717 6.78859 16.594 8.11828 15.9464 10.1829C15.4039 11.9325 15.8764 13.8396 17.3378 15.8604C17.364 15.8954 17.3903 15.9217 17.4165 15.9567L18.6504 17.2252C15.2901 17.1552 13.4962 14.1721 13.2162 13.6646C12.0698 9.47429 18.0379 4.09414 20.9956 1.95083C23.9621 4.1029 29.9302 9.47429 28.7838 13.6646C28.5038 14.1808 26.7274 17.1727 23.3409 17.2252Z" fill="#3A643C"></path>
</svg>
